<mxfile host="Electron" agent="Mozilla/5.0 (Windows NT 10.0; Win64; x64) AppleWebKit/537.36 (KHTML, like Gecko) draw.io/24.7.17 Chrome/128.0.6613.36 Electron/32.0.1 Safari/537.36" version="24.7.17">
  <diagram name="Page-1" id="Z7HNQjsLqWzbI7lohUvm">
    <mxGraphModel dx="2327" dy="887" grid="1" gridSize="10" guides="1" tooltips="1" connect="1" arrows="1" fold="1" page="1" pageScale="1" pageWidth="827" pageHeight="1169" math="0" shadow="0">
      <root>
        <mxCell id="0" />
        <mxCell id="1" parent="0" />
        <mxCell id="5vZIm-Ww5dQrLNoJw_nb-13" style="edgeStyle=orthogonalEdgeStyle;rounded=0;orthogonalLoop=1;jettySize=auto;html=1;" edge="1" parent="1" source="5vZIm-Ww5dQrLNoJw_nb-1" target="5vZIm-Ww5dQrLNoJw_nb-11">
          <mxGeometry relative="1" as="geometry" />
        </mxCell>
        <mxCell id="5vZIm-Ww5dQrLNoJw_nb-1" value="" style="ellipse;shape=cloud;whiteSpace=wrap;html=1;" vertex="1" parent="1">
          <mxGeometry x="-30" y="10" width="880" height="400" as="geometry" />
        </mxCell>
        <mxCell id="5vZIm-Ww5dQrLNoJw_nb-2" value="" style="shape=cylinder3;whiteSpace=wrap;html=1;boundedLbl=1;backgroundOutline=1;size=15;fillColor=#dae8fc;strokeColor=#6c8ebf;" vertex="1" parent="1">
          <mxGeometry x="620" y="140" width="90" height="150" as="geometry" />
        </mxCell>
        <mxCell id="5vZIm-Ww5dQrLNoJw_nb-3" value="PostgreSQL server" style="text;html=1;align=center;verticalAlign=middle;whiteSpace=wrap;rounded=0;" vertex="1" parent="1">
          <mxGeometry x="635" y="170" width="60" height="30" as="geometry" />
        </mxCell>
        <mxCell id="5vZIm-Ww5dQrLNoJw_nb-8" style="edgeStyle=orthogonalEdgeStyle;rounded=0;orthogonalLoop=1;jettySize=auto;html=1;" edge="1" parent="1" source="5vZIm-Ww5dQrLNoJw_nb-4" target="5vZIm-Ww5dQrLNoJw_nb-2">
          <mxGeometry relative="1" as="geometry" />
        </mxCell>
        <mxCell id="5vZIm-Ww5dQrLNoJw_nb-4" value="OntoQuest" style="rounded=1;whiteSpace=wrap;html=1;fillColor=#dae8fc;strokeColor=#6c8ebf;" vertex="1" parent="1">
          <mxGeometry x="160" y="185" width="120" height="60" as="geometry" />
        </mxCell>
        <mxCell id="5vZIm-Ww5dQrLNoJw_nb-14" style="edgeStyle=orthogonalEdgeStyle;rounded=0;orthogonalLoop=1;jettySize=auto;html=1;exitX=0.5;exitY=1;exitDx=0;exitDy=0;" edge="1" parent="1" source="5vZIm-Ww5dQrLNoJw_nb-5">
          <mxGeometry relative="1" as="geometry">
            <mxPoint x="410" y="390" as="targetPoint" />
            <Array as="points">
              <mxPoint x="220" y="290" />
              <mxPoint x="410" y="290" />
            </Array>
          </mxGeometry>
        </mxCell>
        <mxCell id="5vZIm-Ww5dQrLNoJw_nb-5" value="&lt;font style=&quot;font-size: 6px;&quot;&gt;Docker&lt;/font&gt;" style="text;html=1;align=center;verticalAlign=middle;whiteSpace=wrap;rounded=0;" vertex="1" parent="1">
          <mxGeometry x="190" y="215" width="60" height="30" as="geometry" />
        </mxCell>
        <mxCell id="5vZIm-Ww5dQrLNoJw_nb-6" value="&lt;font style=&quot;font-size: 6px;&quot;&gt;Docker&lt;/font&gt;" style="text;html=1;align=center;verticalAlign=middle;whiteSpace=wrap;rounded=0;" vertex="1" parent="1">
          <mxGeometry x="640" y="260" width="60" height="30" as="geometry" />
        </mxCell>
        <mxCell id="5vZIm-Ww5dQrLNoJw_nb-9" style="edgeStyle=orthogonalEdgeStyle;rounded=0;orthogonalLoop=1;jettySize=auto;html=1;exitX=0;exitY=0.5;exitDx=0;exitDy=0;exitPerimeter=0;entryX=0.954;entryY=0.488;entryDx=0;entryDy=0;entryPerimeter=0;" edge="1" parent="1" source="5vZIm-Ww5dQrLNoJw_nb-2" target="5vZIm-Ww5dQrLNoJw_nb-4">
          <mxGeometry relative="1" as="geometry" />
        </mxCell>
        <mxCell id="5vZIm-Ww5dQrLNoJw_nb-10" value="DB connection" style="text;html=1;align=center;verticalAlign=middle;whiteSpace=wrap;rounded=0;" vertex="1" parent="1">
          <mxGeometry x="414" y="185" width="60" height="30" as="geometry" />
        </mxCell>
        <mxCell id="5vZIm-Ww5dQrLNoJw_nb-12" style="edgeStyle=orthogonalEdgeStyle;rounded=0;orthogonalLoop=1;jettySize=auto;html=1;entryX=0.5;entryY=0.944;entryDx=0;entryDy=0;entryPerimeter=0;" edge="1" parent="1" source="5vZIm-Ww5dQrLNoJw_nb-11" target="5vZIm-Ww5dQrLNoJw_nb-1">
          <mxGeometry relative="1" as="geometry" />
        </mxCell>
        <mxCell id="5vZIm-Ww5dQrLNoJw_nb-11" value="Client" style="image;points=[];aspect=fixed;html=1;align=center;shadow=0;dashed=0;image=img/lib/allied_telesis/computer_and_terminals/Personal_Computer.svg;" vertex="1" parent="1">
          <mxGeometry x="340" y="540" width="45.6" height="61.800000000000004" as="geometry" />
        </mxCell>
        <mxCell id="5vZIm-Ww5dQrLNoJw_nb-15" value="HICP" style="text;html=1;align=center;verticalAlign=middle;whiteSpace=wrap;rounded=0;" vertex="1" parent="1">
          <mxGeometry x="340" y="60" width="60" height="30" as="geometry" />
        </mxCell>
      </root>
    </mxGraphModel>
  </diagram>
</mxfile>
